<mxfile host="app.diagrams.net" modified="2022-07-25T10:01:03.475Z" agent="5.0 (Macintosh; Intel Mac OS X 10_15_7) AppleWebKit/537.36 (KHTML, like Gecko) Chrome/103.0.0.0 Safari/537.36" etag="xELdr774ZNcCcSjm-xQF" version="20.2.0" type="github">
  <diagram id="ziywDRYvMt0MdyH9GN9u" name="第 1 页">
    <mxGraphModel dx="1297" dy="841" grid="1" gridSize="10" guides="1" tooltips="1" connect="1" arrows="1" fold="1" page="1" pageScale="1" pageWidth="850" pageHeight="1100" math="0" shadow="0">
      <root>
        <mxCell id="0" />
        <mxCell id="1" parent="0" />
        <mxCell id="awqgHAb5KxMPYE8IUojQ-2" value="规则执行服务" style="rounded=1;whiteSpace=wrap;html=1;" vertex="1" parent="1">
          <mxGeometry x="270" y="150" width="120" height="40" as="geometry" />
        </mxCell>
        <mxCell id="awqgHAb5KxMPYE8IUojQ-7" value="规则匹配服务" style="rounded=1;whiteSpace=wrap;html=1;" vertex="1" parent="1">
          <mxGeometry x="440" y="150" width="120" height="40" as="geometry" />
        </mxCell>
        <mxCell id="awqgHAb5KxMPYE8IUojQ-8" value="" style="group" vertex="1" connectable="0" parent="1">
          <mxGeometry x="270" y="260" width="120" height="80" as="geometry" />
        </mxCell>
        <mxCell id="awqgHAb5KxMPYE8IUojQ-1" value="" style="rounded=1;whiteSpace=wrap;html=1;" vertex="1" parent="awqgHAb5KxMPYE8IUojQ-8">
          <mxGeometry width="120" height="80" as="geometry" />
        </mxCell>
        <mxCell id="awqgHAb5KxMPYE8IUojQ-3" value="&lt;span style=&quot;color: rgb(0, 0, 0); font-family: Helvetica; font-size: 12px; font-style: normal; font-variant-ligatures: normal; font-variant-caps: normal; font-weight: 400; letter-spacing: normal; orphans: 2; text-indent: 0px; text-transform: none; widows: 2; word-spacing: 0px; -webkit-text-stroke-width: 0px; background-color: rgb(248, 249, 250); text-decoration-thickness: initial; text-decoration-style: initial; text-decoration-color: initial; float: none; display: inline !important;&quot;&gt;模型服务&lt;/span&gt;" style="text;whiteSpace=wrap;html=1;align=center;" vertex="1" parent="awqgHAb5KxMPYE8IUojQ-8">
          <mxGeometry x="20" y="1" width="80" height="20" as="geometry" />
        </mxCell>
        <mxCell id="awqgHAb5KxMPYE8IUojQ-4" value="&lt;ul&gt;&lt;li&gt;model 1&lt;/li&gt;&lt;li&gt;model 2&lt;/li&gt;&lt;li&gt;model 3&lt;/li&gt;&lt;/ul&gt;" style="text;strokeColor=none;fillColor=none;html=1;whiteSpace=wrap;verticalAlign=middle;overflow=hidden;" vertex="1" parent="awqgHAb5KxMPYE8IUojQ-8">
          <mxGeometry y="10" width="120" height="60" as="geometry" />
        </mxCell>
        <mxCell id="awqgHAb5KxMPYE8IUojQ-10" value="风控服务" style="rounded=1;whiteSpace=wrap;html=1;" vertex="1" parent="1">
          <mxGeometry x="100" y="270" width="120" height="60" as="geometry" />
        </mxCell>
        <mxCell id="awqgHAb5KxMPYE8IUojQ-11" value="" style="edgeStyle=elbowEdgeStyle;elbow=horizontal;endArrow=classic;html=1;rounded=0;entryX=0;entryY=0.5;entryDx=0;entryDy=0;" edge="1" parent="1" target="awqgHAb5KxMPYE8IUojQ-2">
          <mxGeometry width="50" height="50" relative="1" as="geometry">
            <mxPoint x="220" y="300" as="sourcePoint" />
            <mxPoint x="270" y="250" as="targetPoint" />
            <Array as="points">
              <mxPoint x="240" y="220" />
            </Array>
          </mxGeometry>
        </mxCell>
        <mxCell id="awqgHAb5KxMPYE8IUojQ-12" value="" style="endArrow=classic;html=1;rounded=0;exitX=0.5;exitY=1;exitDx=0;exitDy=0;entryX=0.5;entryY=0;entryDx=0;entryDy=0;" edge="1" parent="1" source="awqgHAb5KxMPYE8IUojQ-2" target="awqgHAb5KxMPYE8IUojQ-3">
          <mxGeometry width="50" height="50" relative="1" as="geometry">
            <mxPoint x="280" y="390" as="sourcePoint" />
            <mxPoint x="330" y="340" as="targetPoint" />
          </mxGeometry>
        </mxCell>
        <mxCell id="awqgHAb5KxMPYE8IUojQ-13" value="" style="endArrow=classic;startArrow=classic;html=1;rounded=0;entryX=0;entryY=0.5;entryDx=0;entryDy=0;exitX=1;exitY=0.5;exitDx=0;exitDy=0;" edge="1" parent="1" source="awqgHAb5KxMPYE8IUojQ-2" target="awqgHAb5KxMPYE8IUojQ-7">
          <mxGeometry width="50" height="50" relative="1" as="geometry">
            <mxPoint x="280" y="390" as="sourcePoint" />
            <mxPoint x="330" y="340" as="targetPoint" />
          </mxGeometry>
        </mxCell>
        <mxCell id="awqgHAb5KxMPYE8IUojQ-14" value="知识图谱" style="rounded=1;whiteSpace=wrap;html=1;" vertex="1" parent="1">
          <mxGeometry x="600" y="150" width="120" height="190" as="geometry" />
        </mxCell>
        <mxCell id="awqgHAb5KxMPYE8IUojQ-16" value="" style="edgeStyle=elbowEdgeStyle;elbow=horizontal;endArrow=classic;html=1;rounded=0;entryX=0;entryY=0.25;entryDx=0;entryDy=0;" edge="1" parent="1" source="awqgHAb5KxMPYE8IUojQ-7" target="awqgHAb5KxMPYE8IUojQ-14">
          <mxGeometry width="50" height="50" relative="1" as="geometry">
            <mxPoint x="380" y="390" as="sourcePoint" />
            <mxPoint x="430" y="340" as="targetPoint" />
          </mxGeometry>
        </mxCell>
      </root>
    </mxGraphModel>
  </diagram>
</mxfile>
